<svg xmlns="http://www.w3.org/2000/svg" viewBox="0 0 511.996 511.996" xml:space="preserve"><path style="fill:#ed5564" d="M362.668 330.668h42.656v53h-42.656z"/><path style="fill:#da4453" d="M405.325 319.998h-42.656c-5.891 0-10.672 4.781-10.672 10.672v53c0 5.891 4.781 10.656 10.672 10.656h42.656c5.891 0 10.672-4.766 10.672-10.656v-53c0-5.891-4.781-10.672-10.672-10.672zm-10.656 53h-21.344v-31.672h21.344v31.672z"/><path style="fill:#ccd1d9" d="M223.998 127.998h64v298.67h-64zm-95.999 373.326c0 5.891-4.781 10.672-10.672 10.672s-10.656-4.781-10.656-10.672 4.766-10.656 10.656-10.656 10.672 4.766 10.672 10.656zm277.326 0c0 5.891-4.766 10.672-10.656 10.672s-10.672-4.781-10.672-10.672 4.781-10.656 10.672-10.656 10.656 4.766 10.656 10.656z"/><path style="fill:#434a54" d="M117.327 362.67c0 5.891-4.766 10.656-10.656 10.656s-10.672-4.766-10.672-10.656 4.781-10.672 10.672-10.672 10.656 4.781 10.656 10.672zm42.672 0c0 5.891-4.781 10.656-10.672 10.656s-10.656-4.766-10.656-10.656 4.765-10.672 10.656-10.672 10.672 4.781 10.672 10.672z"/><path style="fill:#656d78" d="M74.671 362.67v85.327l21.328 53.327h319.998l21.328-53.327V362.67z"/><path style="fill:#ed5564" d="M255.998 0c-47.125 0-85.327 38.202-85.327 85.327 0 47.141 38.202 85.344 85.327 85.344s85.328-38.203 85.328-85.344C341.326 38.202 303.123 0 255.998 0z"/><path style="opacity:.1;fill:#fff;enable-background:new" d="M255.998 0c-3.609 0-7.172.234-10.672.656 42.094 5.25 74.672 41.155 74.672 84.671s-32.578 79.422-74.672 84.672c3.5.438 7.062.672 10.672.672 47.125 0 85.328-38.203 85.328-85.344C341.326 38.202 303.123 0 255.998 0z"/><path style="fill:#e6e9ed" d="M309.326 319.998H202.67l-21.344 42.672.078 42.655c0 5.891 4.781 10.672 10.672 10.672h127.922c5.891 0 10.672-4.781 10.672-10.672V362.67l-21.344-42.672z"/><path style="fill:#434a54" d="M415.997 501.324H95.999l-21.328-53.327h362.654z"/></svg>